<svg width="39" height="39" viewBox="0 0 39 39" fill="none" xmlns="http://www.w3.org/2000/svg">
<path d="M34.5182 19.2472C34.5182 27.4607 27.8601 34.1188 19.6466 34.1188C11.433 34.1188 4.7749 27.4607 4.7749 19.2472C4.7749 11.0336 11.433 4.37549 19.6466 4.37549C27.8601 4.37549 34.5182 11.0336 34.5182 19.2472Z" fill="#1E1E1E"/>
<path d="M23.2475 19.247C23.2475 21.2359 21.6353 22.8481 19.6464 22.8481C17.6576 22.8481 16.0454 21.2359 16.0454 19.247C16.0454 17.2582 17.6576 15.646 19.6464 15.646C21.6353 15.646 23.2475 17.2582 23.2475 19.247Z" fill="white"/>
<path d="M28.0681 12.8758C27.895 12.4067 27.6188 11.9822 27.26 11.6336C26.9115 11.2748 26.4872 10.9986 26.0178 10.8255C25.6372 10.6777 25.0653 10.5017 24.012 10.4538C22.8727 10.4018 22.531 10.3906 19.6465 10.3906C16.7618 10.3906 16.4201 10.4015 15.281 10.4535C14.2278 10.5017 13.6556 10.6777 13.2753 10.8255C12.8059 10.9986 12.3813 11.2748 12.0331 11.6336C11.6743 11.9822 11.3981 12.4064 11.2247 12.8758C11.0769 13.2565 10.9009 13.8286 10.853 14.8819C10.801 16.021 10.7898 16.3626 10.7898 19.2474C10.7898 22.1319 10.801 22.4735 10.853 23.6129C10.9009 24.6661 11.0769 25.238 11.2247 25.6186C11.3981 26.088 11.674 26.5123 12.0328 26.8608C12.3813 27.2197 12.8056 27.4958 13.275 27.6689C13.6556 27.817 14.2278 27.993 15.281 28.041C16.4201 28.0929 16.7615 28.1038 19.6463 28.1038C22.5313 28.1038 22.8729 28.0929 24.0118 28.041C25.065 27.993 25.6372 27.817 26.0178 27.6689C26.96 27.3055 27.7047 26.5608 28.0681 25.6186C28.2159 25.238 28.3919 24.6661 28.4401 23.6129C28.4921 22.4735 28.503 22.1319 28.503 19.2474C28.503 16.3626 28.4921 16.021 28.4401 14.8819C28.3922 13.8286 28.2162 13.2565 28.0681 12.8758ZM19.6465 24.7945C16.5826 24.7945 14.0989 22.311 14.0989 19.2471C14.0989 16.1832 16.5826 13.6997 19.6465 13.6997C22.7102 13.6997 25.1939 16.1832 25.1939 19.2471C25.1939 22.311 22.7102 24.7945 19.6465 24.7945ZM25.4132 14.7768C24.6973 14.7768 24.1168 14.1963 24.1168 13.4804C24.1168 12.7644 24.6973 12.184 25.4132 12.184C26.1292 12.184 26.7097 12.7644 26.7097 13.4804C26.7094 14.1963 26.1292 14.7768 25.4132 14.7768Z" fill="white"/>
<path d="M19.6466 0.433594C9.25771 0.433594 0.833008 8.8583 0.833008 19.2471C0.833008 29.636 9.25771 38.0607 19.6466 38.0607C30.0354 38.0607 38.4601 29.636 38.4601 19.2471C38.4601 8.8583 30.0354 0.433594 19.6466 0.433594ZM30.3845 23.7011C30.3322 24.8511 30.1494 25.6362 29.8824 26.3235C29.3212 27.7746 28.174 28.9218 26.7229 29.483C26.0359 29.75 25.2505 29.9325 24.1008 29.9851C22.9488 30.0376 22.5807 30.0502 19.6469 30.0502C16.7127 30.0502 16.3449 30.0376 15.1926 29.9851C14.0429 29.9325 13.2575 29.75 12.5705 29.483C11.8494 29.2117 11.1966 28.7866 10.6569 28.2368C10.1074 27.6974 9.68229 27.0443 9.41101 26.3235C9.14403 25.6365 8.96117 24.8511 8.90892 23.7014C8.85581 22.5491 8.84347 22.181 8.84347 19.2471C8.84347 16.3133 8.85581 15.9452 8.90863 14.7932C8.96088 13.6432 9.14346 12.8581 9.41043 12.1708C9.68172 11.45 10.1072 10.7969 10.6569 10.2575C11.1963 9.70774 11.8494 9.28259 12.5702 9.01131C13.2575 8.74433 14.0426 8.56175 15.1926 8.50922C16.3447 8.45668 16.7127 8.44405 19.6466 8.44405C22.5804 8.44405 22.9485 8.45668 24.1005 8.50951C25.2505 8.56175 26.0356 8.74433 26.7229 9.01102C27.4437 9.2823 28.0968 9.70774 28.6365 10.2575C29.186 10.7972 29.6114 11.45 29.8824 12.1708C30.1497 12.8581 30.3322 13.6432 30.3848 14.7932C30.4373 15.9452 30.4497 16.3133 30.4497 19.2471C30.4497 22.181 30.4373 22.5491 30.3845 23.7011Z" fill="white"/>
</svg>
