<svg width="41" height="41" viewBox="0 0 41 41" fill="none" xmlns="http://www.w3.org/2000/svg">
<path d="M20.5631 40.2058C31.6656 40.2058 40.666 31.2054 40.666 20.1029C40.666 9.00038 31.6656 0 20.5631 0C9.46058 0 0.460205 9.00038 0.460205 20.1029C0.460205 31.2054 9.46058 40.2058 20.5631 40.2058Z" fill="white"/>
<path d="M32.8768 14.4474C32.0153 14.8294 31.0886 15.0878 30.1168 15.2032C31.1091 14.6087 31.8706 13.668 32.23 12.5453C31.3015 13.0961 30.2727 13.4956 29.1786 13.711C28.3021 12.7775 27.0532 12.1941 25.6703 12.1941C23.0171 12.1941 20.8652 14.346 20.8652 16.9993C20.8652 17.3759 20.9078 17.7425 20.9902 18.0944C16.9968 17.8941 13.4559 15.9812 11.0857 13.0731C10.6722 13.7827 10.4349 14.6087 10.4349 15.4892C10.4349 17.1559 11.2839 18.6273 12.5725 19.4887C11.7852 19.464 11.0438 19.2479 10.3962 18.8871C10.3959 18.9075 10.3959 18.9279 10.3959 18.948C10.3959 21.2762 12.0529 23.2181 14.2507 23.6593C13.8479 23.7696 13.4225 23.828 12.985 23.828C12.6747 23.828 12.374 23.7983 12.0809 23.7424C12.6922 25.651 14.4664 27.0403 16.5696 27.0794C14.9248 28.3684 12.8531 29.1363 10.6012 29.1363C10.2142 29.1363 9.83076 29.1137 9.45557 29.069C11.581 30.4328 14.1074 31.228 16.8208 31.228C25.6592 31.228 30.4927 23.9062 30.4927 17.5558C30.4927 17.3476 30.488 17.1401 30.4787 16.9344C31.4183 16.2571 32.2329 15.411 32.8768 14.4474Z" fill="#1E1E1E"/>
</svg>
