<svg width="38" height="39" viewBox="0 0 38 39" fill="none" xmlns="http://www.w3.org/2000/svg">
<path d="M18.8183 0.433594H18.8089C8.43553 0.433594 0 8.87147 0 19.2471C0 23.3626 1.32636 27.1771 3.58163 30.2742L1.23699 37.2635L8.46845 34.9518C11.4433 36.9225 14.9921 38.0607 18.8183 38.0607C29.1916 38.0607 37.6271 29.6205 37.6271 19.2471C37.6271 8.87383 29.1916 0.433594 18.8183 0.433594Z" fill="white"/>
<path d="M29.7653 27.0006C29.3115 28.2822 27.5101 29.3452 26.0732 29.6556C25.0902 29.8649 23.8061 30.0319 19.4837 28.2399C13.9549 25.9494 10.3944 20.3312 10.1169 19.9667C9.85118 19.6021 7.88281 16.9918 7.88281 14.292C7.88281 11.5923 9.25385 10.2777 9.8065 9.71327C10.2604 9.24998 11.0106 9.03833 11.7302 9.03833C11.963 9.03833 12.1723 9.05009 12.3604 9.0595C12.9131 9.08301 13.1906 9.11594 13.5551 9.98842C14.009 11.082 15.1143 13.7817 15.246 14.0592C15.38 14.3367 15.5141 14.713 15.3259 15.0775C15.1495 15.4538 14.9943 15.6207 14.7168 15.9406C14.4393 16.2604 14.1759 16.505 13.8984 16.8483C13.6445 17.147 13.3576 17.4668 13.6774 18.0195C13.9972 18.5603 15.1025 20.3641 16.7299 21.8127C18.83 23.6823 20.5326 24.2797 21.1417 24.5336C21.5955 24.7218 22.1364 24.6771 22.468 24.3243C22.889 23.8705 23.4087 23.1179 23.9378 22.3771C24.3141 21.8457 24.7891 21.7798 25.2877 21.9679C25.7957 22.1443 28.4837 23.473 29.0363 23.7482C29.589 24.0257 29.9535 24.1574 30.0875 24.3902C30.2192 24.623 30.2192 25.7165 29.7653 27.0006Z" fill="#1E1E1E"/>
</svg>
