 <svg
      width="102"
      height="28"
      viewBox="0 0 102 28"
      fill="none"
      xmlns="http://www.w3.org/2000/svg"
    >
      <path
        d="M0 6.66418V0.000727654H6.66607C5.18683 2.85779 2.85784 5.18586 0 6.66418H0Z"
        fill="#EE0E43"
      />
      <path
        d="M0 15.445V9.67651C4.35702 7.8246 7.82651 4.3562 9.67943 0.000122351H11.1247C12.5817 -0.00558725 14.0327 0.188561 15.437 0.577139C15.2831 4.56925 13.5899 8.34689 10.7122 11.1185C7.8345 13.8901 3.99563 15.4406 0 15.445H0Z"
        fill="#EE0E43"
      />
      <path
        d="M7.28019 22.2817C4.7397 22.2857 2.23804 21.6584 0 20.4564L0 18.1686C4.53726 18.1638 8.90913 16.4647 12.2585 13.4043C15.6078 10.344 17.6931 6.14303 18.1054 1.62518C19.9182 2.55287 21.484 3.89878 22.6734 5.55158C22.7104 5.97775 22.7289 6.40785 22.7289 6.84188C22.7227 10.936 21.0928 14.8606 18.1968 17.755C15.3008 20.6493 11.3749 22.2772 7.28019 22.2817Z"
        fill="#EE0E43"
      />
      <path
        d="M25.1568 13.5642C25.1568 21.3935 19.2276 27.13 11.0086 27.13H0V23.4879C2.29449 24.4961 4.77392 25.0151 7.28019 25.012C11.3585 25.0053 15.3165 23.6298 18.5198 21.106C21.7231 18.5821 23.9862 15.0561 24.9465 11.093C25.0865 11.9093 25.1568 12.736 25.1568 13.5642Z"
        fill="#EE0E43"
      /></svg>