<svg width="102" height="28" viewBox="0 0 102 28" fill="none" xmlns="http://www.w3.org/2000/svg">
<path d="M0 6.66418V0.000732422H6.66607C5.18683 2.85779 2.85784 5.18587 0 6.66418H0Z" fill="#EE0E43"/>
<path d="M0 15.445V9.67651C4.35702 7.8246 7.82651 4.3562 9.67943 0.000122351H11.1247C12.5817 -0.00558725 14.0327 0.188561 15.437 0.577139C15.2831 4.56925 13.5899 8.34689 10.7122 11.1185C7.8345 13.8901 3.99563 15.4406 0 15.445H0Z" fill="#EE0E43"/>
<path d="M7.28019 22.2816C4.7397 22.2856 2.23804 21.6584 0 20.4564L0 18.1685C4.53726 18.1638 8.90913 16.4647 12.2585 13.4043C15.6078 10.3439 17.6931 6.14297 18.1054 1.62512C19.9182 2.55282 21.484 3.89873 22.6734 5.55153C22.7104 5.9777 22.7289 6.4078 22.7289 6.84182C22.7227 10.936 21.0928 14.8605 18.1968 17.7549C15.3008 20.6493 11.3749 22.2772 7.28019 22.2816Z" fill="#EE0E43"/>
<path d="M25.1568 13.5643C25.1568 21.3935 19.2276 27.13 11.0086 27.13H0V23.4879C2.29449 24.4961 4.77392 25.0152 7.28019 25.0121C11.3585 25.0054 15.3165 23.6299 18.5198 21.106C21.7231 18.5822 23.9862 15.0561 24.9465 11.093C25.0865 11.9093 25.1568 12.736 25.1568 13.5643Z" fill="#EE0E43"/>
<path d="M41.7564 5.04688V18.3704C41.7564 19.6691 41.8035 21.0385 41.8506 21.819H38.6538L38.4856 20.1183H38.4385C37.7066 21.417 36.3135 22.0781 34.8244 22.0781C32.0853 22.0781 29.888 19.7398 29.888 16.1515C29.8644 12.2537 32.2973 10.0112 35.0617 10.0112C36.4783 10.0112 37.5854 10.5058 38.1087 11.3099H38.1558V5.04688H41.7564ZM38.1676 15.159C38.1636 14.9457 38.1479 14.7329 38.1205 14.5214C37.9068 13.5524 37.1278 12.75 36.0173 12.75C34.387 12.75 33.5373 14.2135 33.5373 16.0321C33.5373 17.9919 34.5065 19.2284 35.9938 19.2284C36.4889 19.2308 36.9689 19.0583 37.3491 18.7412C37.7293 18.4242 37.9852 17.983 38.0717 17.4956C38.1419 17.2255 38.1742 16.947 38.1676 16.668V15.159Z" fill="#1E1E1E"/>
<path d="M43.6576 14.0722C43.6576 12.3715 43.6105 11.2628 43.5634 10.2703H46.6575L46.7753 12.395H46.8711C47.4617 10.7127 48.8784 10.0112 49.9888 10.0112C50.2416 10.0012 50.4947 10.017 50.7443 10.0583V13.4346C50.4249 13.3728 50.1004 13.3413 49.7751 13.3404C48.4527 13.3404 47.5559 14.0487 47.3187 15.159C47.2697 15.4236 47.2461 15.6923 47.248 15.9614V21.8191H43.6576V14.0722Z" fill="#1E1E1E"/>
<path d="M54.3986 17.1895C54.5164 18.6783 55.9802 19.3865 57.6576 19.3865C58.7387 19.3989 59.815 19.2393 60.8459 18.9138L61.3187 21.3463C60.141 21.819 58.6957 22.0546 57.1377 22.0546C53.2175 22.0546 50.973 19.7869 50.973 16.175C50.973 13.2462 52.7918 10.0112 56.8063 10.0112C60.538 10.0112 61.9564 12.9148 61.9564 15.773C61.9571 16.2477 61.9171 16.7216 61.8369 17.1895H54.3986ZM58.625 14.7333C58.625 13.8603 58.2482 12.395 56.5943 12.395C55.08 12.395 54.4693 13.766 54.3734 14.7333H58.625Z" fill="#1E1E1E"/>
<path d="M69.7414 21.8191L69.5278 20.6617H69.4571C68.7017 21.5819 67.5205 22.0782 66.151 22.0782C63.8123 22.0782 62.4192 20.3774 62.4192 18.5353C62.4192 15.5375 65.1112 14.0958 69.198 14.1194V13.9629C69.198 13.3489 68.8615 12.4758 67.0949 12.4758C65.9746 12.4872 64.8763 12.788 63.9065 13.3489L63.2453 11.0257C64.0495 10.5782 65.6311 10.0164 67.7342 10.0164C71.5838 10.0164 72.812 12.2824 72.812 14.9992V19.0097C72.7944 19.9497 72.8506 20.8896 72.9803 21.8208L69.7414 21.8191ZM69.3191 16.3635C67.4297 16.34 65.9659 16.7892 65.9659 18.1821C65.9659 19.1023 66.58 19.5514 67.3826 19.5514C67.7928 19.5538 68.1935 19.4275 68.5282 19.1903C68.8629 18.9531 69.1148 18.617 69.2485 18.2292C69.2965 18.0281 69.3203 17.8219 69.3191 17.6151V16.3635Z" fill="#1E1E1E"/>
<path d="M74.6274 13.9629C74.6274 12.5229 74.5803 11.2948 74.5332 10.2788H77.5617L77.73 11.8382H77.8006C78.297 11.1047 79.3149 10.0197 81.2969 10.0197C82.7791 10.0113 83.9569 10.7666 84.4616 11.9711H84.5088C84.9075 11.4124 85.4137 10.9389 85.9978 10.5782C86.663 10.1895 87.4232 9.99325 88.1934 10.0113C90.4143 10.0113 92.0901 11.569 92.0901 15.0177V21.8191H88.5871V15.5375C88.5871 13.8552 88.0437 12.8913 86.8861 12.8913C86.06 12.8913 85.4695 13.4582 85.2322 14.1429C85.1376 14.441 85.0899 14.752 85.0909 15.0648V21.8191H81.6014V15.3474C81.6014 13.8838 81.0815 12.8913 79.9475 12.8913C79.0255 12.8913 78.4837 13.5995 78.265 14.19C78.1608 14.4777 78.1128 14.7826 78.1237 15.0883V21.8174H74.6274V13.9629Z" fill="#1E1E1E"/>
<path d="M93.8988 18.6733C94.56 19.0737 95.9296 19.5464 96.9929 19.5464C98.0562 19.5464 98.529 19.1679 98.529 18.5774C98.529 17.9869 98.174 17.7043 96.828 17.2551C94.4422 16.4577 93.5202 15.159 93.5471 13.7947C93.5471 11.6448 95.3878 10.0164 98.2464 10.0164C99.5924 10.0164 100.797 10.3225 101.505 10.6775L100.866 13.1521C100.094 12.7411 99.2369 12.5148 98.3625 12.491C97.4892 12.491 96.9929 12.8442 96.9929 13.4347C96.9929 13.9781 97.4421 14.2607 98.8588 14.757C101.056 15.514 101.976 16.6226 102 18.3234C102 20.4716 100.299 22.0546 96.9929 22.0546C95.4786 22.0546 94.1326 21.7182 93.2611 21.2522L93.8988 18.6733Z" fill="#1E1E1E"/>
</svg>
