<svg width="102" height="28" viewBox="0 0 102 28" fill="none" xmlns="http://www.w3.org/2000/svg">
<path d="M0 6.66512V0.000732422H6.66607C5.18683 2.8582 2.85784 5.1866 0 6.66512H0Z" fill="white"/>
<path d="M0 15.4472V9.67787C4.35702 7.82571 7.82651 4.35682 9.67943 0.000122368H11.1247C12.5817 -0.00558804 14.0327 0.188588 15.437 0.577221C15.2831 4.56989 13.5899 8.34807 10.7122 11.1201C7.8345 13.8921 3.99563 15.4427 0 15.4472H0Z" fill="white"/>
<path d="M7.28019 22.2849C4.7397 22.2889 2.23804 21.6616 0 20.4594L0 18.1712C4.53726 18.1665 8.90913 16.4671 12.2585 13.4063C15.6078 10.3455 17.6931 6.14398 18.1054 1.62549C19.9182 2.55332 21.484 3.89942 22.6734 5.55245C22.7104 5.97868 22.7289 6.40884 22.7289 6.84293C22.7227 10.9377 21.0928 14.8628 18.1968 17.7576C15.3008 20.6523 11.3749 22.2805 7.28019 22.2849Z" fill="white"/>
<path d="M25.1568 13.5662C25.1568 21.3966 19.2276 27.1339 11.0086 27.1339H0V23.4913C2.29449 24.4996 4.77392 25.0187 7.28019 25.0156C11.3585 25.0089 15.3165 23.6332 18.5198 21.109C21.7231 18.5848 23.9862 15.0583 24.9465 11.0946C25.0865 11.911 25.1568 12.7379 25.1568 13.5662Z" fill="white"/>
<path d="M41.7564 5.04761V18.373C41.7564 19.6719 41.8035 21.0415 41.8506 21.8222H38.6538L38.4856 20.1211H38.4385C37.7066 21.42 36.3135 22.0813 34.8244 22.0813C32.0853 22.0813 29.888 19.7426 29.888 16.1538C29.8644 12.2554 32.2973 10.0127 35.0617 10.0127C36.4783 10.0127 37.5854 10.5073 38.1087 11.3116H38.1558V5.04761H41.7564ZM38.1676 15.1611C38.1636 14.9479 38.1479 14.735 38.1205 14.5235C37.9068 13.5543 37.1278 12.7518 36.0173 12.7518C34.387 12.7518 33.5373 14.2156 33.5373 16.0343C33.5373 17.9945 34.5065 19.2311 35.9938 19.2311C36.4889 19.2336 36.9689 19.061 37.3491 18.7439C37.7293 18.4268 37.9852 17.9856 38.0717 17.4981C38.1419 17.228 38.1742 16.9494 38.1676 16.6703V15.1611Z" fill="white"/>
<path d="M43.6576 14.0743C43.6576 12.3733 43.6105 11.2645 43.5634 10.2718H46.6575L46.7752 12.3968H46.8711C47.4617 10.7143 48.8784 10.0127 49.9888 10.0127C50.2416 10.0026 50.4947 10.0184 50.7443 10.0598V13.4366C50.4249 13.3748 50.1004 13.3432 49.7751 13.3424C48.4527 13.3424 47.5559 14.0507 47.3187 15.1612C47.2697 15.4258 47.2461 15.6946 47.248 15.9637V21.8222H43.6576V14.0743Z" fill="white"/>
<path d="M54.3986 17.1919C54.5164 18.6809 55.9801 19.3893 57.6576 19.3893C58.7387 19.4017 59.8149 19.2421 60.8459 18.9165L61.3187 21.3494C60.141 21.8222 58.6957 22.0577 57.1377 22.0577C53.2175 22.0577 50.973 19.7897 50.973 16.1774C50.973 13.2481 52.7918 10.0127 56.8063 10.0127C60.538 10.0127 61.9564 12.9167 61.9564 15.7753C61.9571 16.25 61.9171 16.724 61.8369 17.1919H54.3986ZM58.625 14.7355C58.625 13.8623 58.2482 12.3968 56.5943 12.3968C55.08 12.3968 54.4693 13.768 54.3734 14.7355H58.625Z" fill="white"/>
<path d="M69.7413 21.8221L69.5276 20.6646H69.457C68.7015 21.5849 67.5204 22.0812 66.1509 22.0812C63.8122 22.0812 62.4191 20.3802 62.4191 18.5379C62.4191 15.5397 65.1111 14.0978 69.1979 14.1213V13.9648C69.1979 13.3507 68.8614 12.4775 67.0947 12.4775C65.9745 12.4889 64.8762 12.7897 63.9064 13.3507L63.2452 11.0272C64.0494 10.5797 65.631 10.0177 67.7341 10.0177C71.5837 10.0177 72.8119 12.284 72.8119 15.0013V19.0124C72.7942 19.9525 72.8505 20.8925 72.9801 21.8238L69.7413 21.8221ZM69.319 16.3658C67.4296 16.3422 65.9658 16.7915 65.9658 18.1846C65.9658 19.1049 66.5799 19.5541 67.3824 19.5541C67.7927 19.5565 68.1933 19.4301 68.528 19.1929C68.8627 18.9557 69.1147 18.6195 69.2483 18.2317C69.2964 18.0305 69.3201 17.8244 69.319 17.6176V16.3658Z" fill="white"/>
<path d="M74.6273 13.9648C74.6273 12.5246 74.5802 11.2964 74.5331 10.2801H77.5616L77.7298 11.8398H77.8005C78.2968 11.1062 79.3148 10.021 81.2967 10.021C82.779 10.0126 83.9568 10.7681 84.4615 11.9727H84.5086C84.9074 11.414 85.4136 10.9404 85.9977 10.5796C86.6629 10.1909 87.423 9.99459 88.1933 10.0126C90.4142 10.0126 92.09 11.5706 92.09 15.0197V21.8221H88.587V15.5396C88.587 13.8571 88.0436 12.8931 86.886 12.8931C86.0599 12.8931 85.4693 13.4601 85.2321 14.1448C85.1375 14.443 85.0898 14.754 85.0908 15.0668V21.8221H81.6013V15.3495C81.6013 13.8857 81.0814 12.8931 79.9474 12.8931C79.0254 12.8931 78.4836 13.6014 78.2649 14.1919C78.1607 14.4796 78.1127 14.7846 78.1235 15.0904V21.8204H74.6273V13.9648Z" fill="white"/>
<path d="M93.8988 18.6759C94.56 19.0763 95.9296 19.5491 96.9929 19.5491C98.0562 19.5491 98.529 19.1705 98.529 18.58C98.529 17.9894 98.174 17.7067 96.828 17.2575C94.4422 16.46 93.5202 15.1611 93.5471 13.7966C93.5471 11.6464 95.3878 10.0177 98.2464 10.0177C99.5924 10.0177 100.797 10.3239 101.505 10.6789L100.866 13.1539C100.094 12.7428 99.2369 12.5165 98.3625 12.4927C97.4892 12.4927 96.9929 12.846 96.9929 13.4365C96.9929 13.98 97.4421 14.2627 98.8588 14.759C101.056 15.5161 101.976 16.6249 102 18.3259C102 20.4744 100.299 22.0577 96.9929 22.0577C95.4786 22.0577 94.1326 21.7212 93.2611 21.2551L93.8988 18.6759Z" fill="white"/>
</svg>
