<svg width="33" height="33" viewBox="0 0 33 33" fill="none" xmlns="http://www.w3.org/2000/svg">
<path d="M32.5488 0H0.451172C0.331514 0 0.216756 0.047534 0.132145 0.132145C0.047534 0.216756 0 0.331514 0 0.451172L0 32.5488C0 32.6685 0.047534 32.7832 0.132145 32.8679C0.216756 32.9525 0.331514 33 0.451172 33H32.5488C32.6685 33 32.7832 32.9525 32.8679 32.8679C32.9525 32.7832 33 32.6685 33 32.5488V0.451172C33 0.331514 32.9525 0.216756 32.8679 0.132145C32.7832 0.047534 32.6685 0 32.5488 0ZM32.0977 32.0977H0.902344V0.902344H32.0977V32.0977Z" fill="black"/>
<path d="M16.4999 29.6698C19.1047 29.6698 21.6509 28.8974 23.8167 27.4503C25.9825 26.0032 27.6705 23.9463 28.6673 21.5399C29.6641 19.1334 29.9249 16.4854 29.4167 13.9307C28.9085 11.376 27.6542 9.02934 25.8124 7.1875C23.9706 5.34567 21.6239 4.09136 19.0692 3.5832C16.5145 3.07504 13.8665 3.33585 11.46 4.33264C9.05356 5.32943 6.99672 7.01744 5.5496 9.18321C4.10248 11.349 3.33008 13.8952 3.33008 16.5C3.33404 19.9916 4.72284 23.3391 7.1918 25.8081C9.66077 28.2771 13.0083 29.6659 16.4999 29.6698ZM16.4999 4.23249C18.9262 4.23249 21.298 4.95196 23.3154 6.29993C25.3327 7.6479 26.9051 9.56382 27.8336 11.8054C28.7621 14.047 29.005 16.5136 28.5317 18.8932C28.0583 21.2729 26.89 23.4588 25.1743 25.1744C23.4587 26.89 21.2728 28.0584 18.8932 28.5318C16.5135 29.0051 14.0469 28.7622 11.8053 27.8337C9.56376 26.9052 7.64784 25.3328 6.29987 23.3154C4.9519 21.2981 4.23242 18.9263 4.23242 16.5C4.23611 13.2476 5.52975 10.1294 7.82956 7.82962C10.1294 5.52982 13.2475 4.23617 16.4999 4.23249Z" fill="black"/>
<path d="M10.4441 8.82231H22.5561C22.651 8.82237 22.7434 8.79254 22.8203 8.73707C22.8972 8.68161 22.9547 8.60332 22.9846 8.51332C23.0145 8.42333 23.0152 8.32621 22.9868 8.23575C22.9583 8.1453 22.9021 8.06611 22.8261 8.00943C20.9989 6.64578 18.78 5.90906 16.5001 5.90906C14.2202 5.90906 12.0013 6.64578 10.1742 8.00943C10.0982 8.06611 10.0419 8.1453 10.0135 8.23575C9.98501 8.32621 9.98578 8.42333 10.0157 8.51332C10.0455 8.60332 10.103 8.68161 10.1799 8.73707C10.2569 8.79254 10.3493 8.82237 10.4441 8.82231ZM16.5001 6.81137C18.0687 6.80756 19.6143 7.18819 21.0018 7.91997H11.9985C13.3859 7.18819 14.9315 6.80756 16.5001 6.81137Z" fill="black"/>
<path d="M7.00745 13.3882H25.9928C26.0656 13.3882 26.1374 13.3706 26.202 13.3368C26.2665 13.3031 26.3219 13.2542 26.3635 13.1943C26.405 13.1345 26.4315 13.0655 26.4406 12.9932C26.4496 12.9209 26.4411 12.8475 26.4156 12.7792C26.139 12.0409 25.7802 11.336 25.3462 10.6778C25.305 10.6155 25.249 10.5643 25.1832 10.5289C25.1175 10.4935 25.0439 10.475 24.9692 10.4749H8.03097C7.95627 10.475 7.88275 10.4935 7.81698 10.5289C7.75121 10.5643 7.69523 10.6155 7.65405 10.6778C7.21998 11.336 6.86126 12.0409 6.58464 12.7792C6.55916 12.8475 6.55059 12.9209 6.55966 12.9932C6.56873 13.0655 6.59517 13.1345 6.63672 13.1943C6.67828 13.2542 6.7337 13.3031 6.79826 13.3368C6.86282 13.3706 6.9346 13.3882 7.00745 13.3882ZM8.27769 11.3773H24.7225C24.9449 11.7334 25.1439 12.1038 25.3181 12.4859H7.68292C7.85685 12.1038 8.05553 11.7335 8.27769 11.3773Z" fill="black"/>
<path d="M5.96025 17.5475C5.97072 17.6593 6.02256 17.7633 6.10562 17.839C6.18869 17.9146 6.297 17.9566 6.40936 17.9566H26.5909C26.7033 17.9566 26.8116 17.9146 26.8947 17.839C26.9777 17.7633 27.0296 17.6593 27.04 17.5475C27.0746 17.1814 27.0916 16.8387 27.0916 16.5C27.0916 16.1612 27.0751 15.8186 27.04 15.4525C27.0296 15.3406 26.9777 15.2367 26.8947 15.161C26.8116 15.0853 26.7033 15.0434 26.5909 15.0433H6.40936C6.297 15.0434 6.18869 15.0853 6.10562 15.161C6.02256 15.2367 5.97072 15.3406 5.96025 15.4525C5.92571 15.8186 5.90869 16.1612 5.90869 16.5C5.90869 16.8387 5.92571 17.1814 5.96025 17.5475ZM6.82754 15.9457H26.1728C26.1836 16.1347 26.1887 16.318 26.1887 16.5C26.1887 16.682 26.1836 16.8653 26.1728 17.0543H6.82754C6.81671 16.8653 6.81155 16.682 6.81155 16.5C6.81155 16.318 6.81671 16.1347 6.82754 15.9457Z" fill="black"/>
<path d="M25.9928 19.6118H7.00745C6.9346 19.6118 6.86282 19.6294 6.79826 19.6632C6.7337 19.6969 6.67828 19.7458 6.63672 19.8057C6.59517 19.8655 6.56873 19.9345 6.55966 20.0068C6.55059 20.0791 6.55916 20.1525 6.58464 20.2208C6.86126 20.9591 7.21998 21.664 7.65405 22.3222C7.69523 22.3845 7.75121 22.4357 7.81698 22.4711C7.88275 22.5065 7.95627 22.525 8.03097 22.5251H24.9692C25.0439 22.525 25.1175 22.5065 25.1832 22.4711C25.249 22.4357 25.305 22.3845 25.3462 22.3222C25.7802 21.664 26.139 20.9591 26.4156 20.2208C26.4411 20.1525 26.4496 20.0791 26.4406 20.0068C26.4315 19.9345 26.405 19.8655 26.3635 19.8057C26.3219 19.7458 26.2665 19.6969 26.202 19.6632C26.1374 19.6294 26.0656 19.6118 25.9928 19.6118ZM24.7225 21.6228H8.27769C8.05527 21.2666 7.85633 20.8963 7.68215 20.5142H25.3173C25.1434 20.8962 24.9447 21.2666 24.7225 21.6228Z" fill="black"/>
<path d="M22.556 24.1777H10.444C10.3492 24.1777 10.2569 24.2075 10.1801 24.263C10.1032 24.3185 10.0458 24.3967 10.0159 24.4866C9.98605 24.5765 9.98525 24.6736 10.0136 24.764C10.042 24.8544 10.0982 24.9336 10.1741 24.9903C12.0012 26.3541 14.2201 27.0909 16.5 27.0909C18.78 27.0909 20.9989 26.3541 22.826 24.9903C22.9019 24.9336 22.958 24.8544 22.9864 24.764C23.0148 24.6736 23.014 24.5765 22.9841 24.4866C22.9542 24.3967 22.8968 24.3185 22.82 24.263C22.7431 24.2075 22.6508 24.1777 22.556 24.1777ZM16.5 26.1886C14.9314 26.1925 13.3858 25.8118 11.9984 25.08H21.0017C19.6143 25.8118 18.0686 26.1925 16.5 26.1886Z" fill="black"/>
<path d="M27.6267 5.82425H29.9687C30.0279 5.82429 30.0866 5.81264 30.1414 5.78998C30.1961 5.76732 30.2459 5.73409 30.2878 5.69218C30.3297 5.65028 30.3629 5.60053 30.3856 5.54578C30.4082 5.49102 30.4199 5.43234 30.4198 5.37308V3.03137C30.4198 2.91171 30.3723 2.79696 30.2877 2.71235C30.2031 2.62773 30.0883 2.5802 29.9687 2.5802H27.6267C27.5071 2.5802 27.3923 2.62773 27.3077 2.71235C27.2231 2.79696 27.1755 2.91171 27.1755 3.03137V5.37308C27.1755 5.43234 27.1871 5.49102 27.2098 5.54578C27.2325 5.60053 27.2657 5.65028 27.3076 5.69218C27.3495 5.73409 27.3993 5.76732 27.454 5.78998C27.5088 5.81264 27.5675 5.82429 27.6267 5.82425ZM28.0779 3.48254H29.5175V4.92191H28.0779V3.48254Z" fill="black"/>
<path d="M3.03125 5.82425H5.37322C5.43248 5.82429 5.49116 5.81264 5.54591 5.78998C5.60067 5.76732 5.65042 5.73409 5.69232 5.69218C5.73422 5.65028 5.76745 5.60053 5.79012 5.54578C5.81278 5.49102 5.82442 5.43234 5.82439 5.37308V3.03137C5.82439 2.91171 5.77686 2.79696 5.69225 2.71235C5.60763 2.62773 5.49288 2.5802 5.37322 2.5802H3.03125C2.91159 2.5802 2.79683 2.62773 2.71222 2.71235C2.62761 2.79696 2.58008 2.91171 2.58008 3.03137V5.37308C2.58004 5.43234 2.59169 5.49102 2.61435 5.54578C2.63701 5.60053 2.67025 5.65028 2.71215 5.69218C2.75405 5.73409 2.8038 5.76732 2.85855 5.78998C2.91331 5.81264 2.97199 5.82429 3.03125 5.82425ZM3.48242 3.48254H4.92205V4.92191H3.48242V3.48254Z" fill="black"/>
<path d="M29.9687 27.1758H27.6267C27.5675 27.1757 27.5088 27.1874 27.454 27.2101C27.3993 27.2327 27.3495 27.266 27.3076 27.3079C27.2657 27.3498 27.2325 27.3995 27.2098 27.4543C27.1871 27.509 27.1755 27.5677 27.1755 27.627V29.9687C27.1755 30.0883 27.2231 30.2031 27.3077 30.2877C27.3923 30.3723 27.5071 30.4198 27.6267 30.4198H29.9687C30.0883 30.4198 30.2031 30.3723 30.2877 30.2877C30.3723 30.2031 30.4198 30.0883 30.4198 29.9687V27.627C30.4199 27.5677 30.4082 27.509 30.3856 27.4543C30.3629 27.3995 30.3297 27.3498 30.2878 27.3079C30.2459 27.266 30.1961 27.2327 30.1414 27.2101C30.0866 27.1874 30.0279 27.1757 29.9687 27.1758ZM29.5175 29.5175H28.0779V28.0781H29.5175V29.5175Z" fill="black"/>
<path d="M3.03125 30.4198H5.37322C5.49288 30.4198 5.60763 30.3723 5.69225 30.2877C5.77686 30.2031 5.82439 30.0883 5.82439 29.9687V27.627C5.82442 27.5677 5.81278 27.509 5.79012 27.4543C5.76745 27.3995 5.73422 27.3498 5.69232 27.3079C5.65042 27.266 5.60067 27.2327 5.54591 27.2101C5.49116 27.1874 5.43248 27.1757 5.37322 27.1758H3.03125C2.97199 27.1757 2.91331 27.1874 2.85855 27.2101C2.8038 27.2327 2.75405 27.266 2.71215 27.3079C2.67025 27.3498 2.63701 27.3995 2.61435 27.4543C2.59169 27.509 2.58004 27.5677 2.58008 27.627V29.9687C2.58008 30.0883 2.62761 30.2031 2.71222 30.2877C2.79683 30.3723 2.91159 30.4198 3.03125 30.4198ZM3.48242 28.0781H4.92205V29.5175H3.48242V28.0781Z" fill="black"/>
</svg>
