<svg width="33" height="33" viewBox="0 0 33 33" fill="none" xmlns="http://www.w3.org/2000/svg">
<path d="M30.109 13.1126L30.8272 13.6003C30.9184 13.662 31.0249 13.6948 31.1342 13.6948C31.1681 13.6948 31.203 13.6915 31.2369 13.685C31.3789 13.6577 31.5045 13.5752 31.5859 13.455L32.8127 11.6465C32.9826 11.3969 32.917 11.0572 32.6674 10.8878L16.7607 0.0942209C16.575 -0.031407 16.333 -0.031407 16.1473 0.0942209L0.239549 10.8884C-0.0100685 11.0577 -0.0750673 11.3975 0.0942573 11.6471L1.32104 13.4556C1.40188 13.5757 1.52805 13.6582 1.67007 13.6855C1.81317 13.7128 1.96011 13.6817 2.07972 13.6009L2.79854 13.1126V18.5774C2.47846 18.7172 2.21682 18.9756 2.07972 19.3153C1.16155 21.5853 0.0674931 24.5687 0.0674931 25.8993C0.0674931 27.8602 1.20907 29.383 2.79854 29.6698V31.9076H0.0674931V33H32.84V31.9076H30.109V13.1126ZM1.91859 12.3899L1.3052 11.4849L16.4537 1.20575L31.6023 11.4849L30.9889 12.3894L16.7607 2.73459C16.6679 2.67178 16.5608 2.6401 16.4537 2.6401C16.3467 2.6401 16.2396 2.67178 16.1468 2.73459L1.91859 12.3899ZM1.15991 25.8993C1.15991 25.0117 1.86397 22.7613 3.09185 19.7249C3.15466 19.5704 3.28958 19.554 3.34474 19.554C3.39991 19.554 3.53482 19.5704 3.59764 19.7249C4.82551 22.7613 5.52958 25.0117 5.52958 25.8993C5.52958 27.4817 4.61031 28.6303 3.34474 28.6303C2.07918 28.6303 1.15991 27.4817 1.15991 25.8993ZM3.89095 29.6698C5.48042 29.383 6.62199 27.8602 6.62199 25.8993C6.62199 24.5687 5.52794 21.5853 4.60976 19.3153C4.47266 18.9756 4.21103 18.7172 3.89095 18.5774V12.3713L16.4537 3.84667L29.0165 12.3713V23.0033L28.9248 22.8656C28.7221 22.5614 28.2185 22.5614 28.0159 22.8656L26.9235 24.5043C26.8639 24.5933 26.8317 24.6993 26.8317 24.8069V25.8993H25.7393V24.8069C25.7393 24.6993 25.7071 24.5933 25.6475 24.5037L24.5551 22.8651C24.3525 22.5609 23.8489 22.5609 23.6462 22.8651L22.5538 24.5037C22.4943 24.5933 22.462 24.6993 22.462 24.8069V25.8993H21.3696V24.8069C21.3696 24.6993 21.3374 24.5933 21.2779 24.5037L20.1854 22.8651C19.9828 22.5609 19.4792 22.5609 19.2765 22.8651L18.1841 24.5037C18.1246 24.5933 18.0924 24.6993 18.0924 24.8069V31.9076H14.8151V21.5296C14.8151 21.2276 14.571 20.9834 14.2689 20.9834H8.26062C7.95857 20.9834 7.71441 21.2276 7.71441 21.5296V31.9076H3.89095V29.6698ZM20.2772 31.9076H19.1848V24.9724L19.731 24.1531L20.2772 24.9724V31.9076ZM21.3696 26.9917H22.462V28.0841H21.3696V26.9917ZM21.3696 29.1765H22.462V31.9076H21.3696V29.1765ZM24.6469 31.9076H23.5545V24.9724L24.1007 24.1531L24.6469 24.9724V31.9076ZM25.7393 26.9917H26.8317V28.0841H25.7393V26.9917ZM25.7393 29.1765H26.8317V31.9076H25.7393V29.1765ZM13.7227 31.9076H8.80683V22.0758H13.7227V31.9076ZM27.9241 31.9076V24.9724L28.4703 24.1531L29.0165 24.9724V31.9076H27.9241Z" fill="black"/>
<path d="M14.8152 17.1599H18.0925C19.2974 17.1599 20.2773 16.18 20.2773 14.9751V11.6978C20.2773 10.4929 19.2974 9.513 18.0925 9.513H14.8152C13.6103 9.513 12.6304 10.4929 12.6304 11.6978V14.9751C12.6304 16.18 13.6103 17.1599 14.8152 17.1599ZM13.7228 14.9751V13.8827H15.9076V16.0675H14.8152C14.2127 16.0675 13.7228 15.5776 13.7228 14.9751ZM18.0925 16.0675H17V13.8827H19.1849V14.9751C19.1849 15.5776 18.6949 16.0675 18.0925 16.0675ZM19.1849 11.6978V12.7903H17V10.6054H18.0925C18.6949 10.6054 19.1849 11.0954 19.1849 11.6978ZM14.8152 10.6054H15.9076V12.7903H13.7228V11.6978C13.7228 11.0954 14.2127 10.6054 14.8152 10.6054Z" fill="black"/>
<path d="M11.5378 26.4455H12.6303V27.5379H11.5378V26.4455Z" fill="black"/>
</svg>
