<svg width="32" height="33" viewBox="0 0 32 33" fill="none" xmlns="http://www.w3.org/2000/svg">
<path d="M14.1915 4.01894C14.0581 3.78678 13.7602 3.70576 13.5262 3.83808C13.5206 3.84124 13.3849 3.91813 13.1692 4.05845C12.9439 4.20495 12.881 4.50485 13.0288 4.72825C13.1766 4.95177 13.479 5.01403 13.7041 4.86746C13.89 4.74661 14.0061 4.68042 14.0094 4.67862C14.2431 4.54623 14.3248 4.25097 14.1915 4.01894Z" fill="#050402"/>
<path d="M18.2382 26.7463C18.0742 26.9374 17.901 27.1305 17.7235 27.3202C17.5402 27.5161 17.5518 27.8222 17.7493 28.0039C17.9463 28.1852 18.255 28.1746 18.4386 27.9783C18.6254 27.7785 18.8079 27.5751 18.9808 27.3737C19.1555 27.1703 19.1309 26.865 18.9258 26.6917C18.7208 26.5185 18.413 26.5429 18.2382 26.7463Z" fill="#050402"/>
<path d="M20.7298 23.791C20.4868 23.6756 20.1957 23.7775 20.0793 24.0185C19.9739 24.2372 19.8549 24.461 19.7259 24.6836C19.5916 24.9153 19.6721 25.211 19.9056 25.3441C20.1387 25.4771 20.437 25.398 20.5716 25.1659C20.7129 24.9222 20.8432 24.6767 20.9594 24.4361C21.0756 24.1951 20.9729 23.9063 20.7298 23.791Z" fill="#050402"/>
<path d="M21.7318 21.7549C21.7442 21.5992 21.7506 21.4424 21.7506 21.2891C21.7506 21.1578 21.746 21.0255 21.7368 20.8957C21.718 20.6292 21.4842 20.4281 21.2162 20.447C20.9474 20.4657 20.7448 20.6969 20.7637 20.9634C20.7713 21.0707 20.7752 21.1802 20.7751 21.289C20.7751 21.417 20.7698 21.5481 20.7594 21.6785C20.7381 21.9448 20.9385 22.1778 21.2071 22.199C21.4749 22.2201 21.7105 22.0217 21.7318 21.7549Z" fill="#050402"/>
<path d="M20.2845 17.5342C20.1091 17.3314 19.8012 17.3081 19.5967 17.482C19.3923 17.656 19.3687 17.9614 19.5441 18.1642C19.7072 18.3529 19.8561 18.5477 19.9866 18.7434C20.1352 18.9663 20.4379 19.0275 20.6625 18.8801C20.8873 18.7327 20.9489 18.4326 20.8003 18.2097C20.6475 17.9806 20.4739 17.7533 20.2845 17.5342Z" fill="#050402"/>
<path d="M18.1657 15.7511C17.9421 15.6081 17.7051 15.4663 17.4613 15.3296C17.2269 15.1981 16.9292 15.28 16.7966 15.5126C16.6641 15.7452 16.7467 16.0404 16.9812 16.1718C17.2086 16.2993 17.4293 16.4314 17.637 16.5642C17.8619 16.7081 18.1643 16.6458 18.3112 16.4199C18.4573 16.1953 18.3921 15.8959 18.1657 15.7511Z" fill="#050402"/>
<path d="M14.3829 13.7964C14.1475 13.6664 13.8506 13.7504 13.7196 13.984C13.5886 14.2175 13.6733 14.5121 13.9087 14.642C14.1381 14.7685 14.3797 14.8957 14.627 15.0199C14.8656 15.14 15.16 15.0469 15.2825 14.8071C15.4043 14.5689 15.3083 14.2777 15.0679 14.1569C14.8319 14.0382 14.6014 13.9169 14.3829 13.7964Z" fill="#050402"/>
<path d="M11.6406 13.1175C11.8451 13.2904 12.153 13.2669 12.3282 13.0631C12.5029 12.8598 12.4784 12.5544 12.2733 12.3811C12.076 12.2143 11.8923 12.044 11.7273 11.8751C11.5398 11.6833 11.2311 11.6783 11.0376 11.8642C10.844 12.0501 10.8392 12.3564 11.0266 12.5483C11.2131 12.7393 11.4197 12.9309 11.6406 13.1175Z" fill="#050402"/>
<path d="M10.0103 8.70351C9.74182 8.69725 9.51677 8.90679 9.50943 9.17382C9.50845 9.20837 9.508 9.24291 9.50806 9.27714C9.50806 9.54185 9.5362 9.80843 9.59176 10.0695C9.64752 10.3318 9.90714 10.498 10.1697 10.443C10.4333 10.3878 10.6019 10.1312 10.5463 9.86979C10.5047 9.67423 10.4836 9.47488 10.4836 9.27669C10.4836 9.25116 10.484 9.2257 10.4847 9.20037C10.4919 8.93328 10.2796 8.71085 10.0103 8.70351Z" fill="#050402"/>
<path d="M10.6326 7.1586C10.8507 7.31529 11.1557 7.26688 11.3137 7.05045C11.4525 6.86038 11.6099 6.66824 11.7816 6.47959C11.9621 6.2812 11.9464 5.97537 11.7464 5.79632C11.5463 5.6172 11.2379 5.63299 11.0575 5.83125C10.8624 6.04562 10.6827 6.26489 10.5235 6.483C10.3655 6.69944 10.4143 7.00185 10.6326 7.1586Z" fill="#050402"/>
<path d="M15.84 29.0897C15.6598 29.2375 15.5526 29.3184 15.5517 29.3191C15.3371 29.4806 15.2951 29.7841 15.458 29.9969C15.6214 30.2104 15.9273 30.2509 16.1415 30.0899C16.1464 30.0861 16.2641 29.9974 16.4617 29.8353C16.6693 29.665 16.6984 29.3601 16.5267 29.1542C16.3551 28.9484 16.0476 28.9194 15.84 29.0897Z" fill="#050402"/>
<path d="M17.7759 33H27.2705C28.0853 33 28.8264 32.5203 29.2046 31.7481C33.6221 22.7273 32.6075 14.6033 22.8654 11.6172C19.7292 10.6558 15.9574 9.08512 15.7983 7.06123C15.6712 5.44365 17.8365 3.54067 22.234 1.40527C22.9272 1.06863 22.69 0 21.9248 0C20.891 0 19.4698 0 18.3887 0C17.7769 0 17.1831 0.137479 16.624 0.408504C15.2625 1.0685 13.4657 2.01029 11.7287 3.13468C6.56795 6.00632 3.92556 8.78799 3.87507 11.4024C3.8405 13.1921 5.02675 14.8306 7.40081 16.2723C9.55151 17.5783 10.6422 19.0432 10.6426 20.6262C10.6438 24.8481 3.01531 29.486 0.508481 31.01C-0.395017 31.5593 -0.0147849 33 1.02291 33H15.5014C15.7707 33 15.9888 32.7836 15.9888 32.5166C15.9888 32.2496 15.7707 32.0332 15.5014 32.0332H4.73009C13.0307 26.6211 18.1219 19.8097 9.65003 14.6646C4.36864 11.4574 6.56561 7.80418 11.6936 4.32023C13.5559 3.05727 15.5675 1.99676 17.052 1.27707C17.4768 1.07121 17.9265 0.966797 18.3887 0.966797H19.6823C17.1001 2.34867 13.3128 4.80872 13.4692 7.71446C13.5292 8.82898 14.1658 9.88395 15.3613 10.8501C16.6246 11.8712 18.5631 12.8287 21.1226 13.6963C25.5697 15.2035 27.9998 17.7015 28.3456 21.1207C28.3725 21.3863 28.6111 21.5801 28.8792 21.5534C29.1471 21.5268 29.3424 21.2899 29.3156 21.0242C28.9283 17.1951 26.2778 14.4218 21.4378 12.7814C16.9601 11.2637 14.5411 9.49375 14.4425 7.66283C14.406 6.98369 14.6765 6.34509 15.0565 5.77971C13.6007 9.29356 18.9081 11.416 22.5775 12.5407C26.2817 13.6762 28.7519 15.6046 29.9194 18.2726C31.8903 22.7768 29.7682 28.3841 28.3278 31.3256C28.1141 31.762 27.7089 32.0331 27.2705 32.0331H25.6922C27.378 29.4945 28.9026 26.3942 29.2761 23.3875C29.3091 23.1225 29.1192 22.8812 28.852 22.8486C28.5852 22.8165 28.3416 23.0042 28.3088 23.2692C28.1205 24.7839 27.3749 27.918 24.5159 32.0331H17.7759C17.5067 32.0331 17.2885 32.2496 17.2885 32.5165C17.2885 32.7835 17.5068 33 17.7759 33ZM2.91341 32.0332H1.02297C1.01738 32.0332 1.01479 32.0326 1.01479 32.0326H1.01459C1.00406 32.0268 0.977093 31.9879 0.975599 31.9299C0.973909 31.8611 1.00699 31.8409 1.0179 31.8343C5.5686 29.0676 11.6185 24.8956 11.6173 20.626C11.6168 18.6837 10.3694 16.9415 7.90971 15.4478C4.77883 13.5466 3.81561 11.3413 6.13853 8.54171C4.75732 11.3735 6.23821 13.6556 8.92252 15.3538C9.11663 15.4766 9.17661 15.5088 9.37865 15.6365C17.313 20.6523 10.9062 27.1591 2.91341 32.0332Z" fill="#050402"/>
</svg>
